<!-- Generated by graphviz version 2.40.1 (20161225.0304)
 -->
<!-- Title: VAEGAN Pages: 1 -->
<svg width="430pt" height="663pt" viewBox="0.00 0.00 430.23 663.40" xmlns="http://www.w3.org/2000/svg" xmlns:xlink="http://www.w3.org/1999/xlink" style="width: 100%;">
<g id="graph0" class="graph" transform="scale(1 1) rotate(0) translate(4 659.4)">
<title>VAEGAN</title>
<polygon fill="#ffffff" stroke="transparent" points="-4,4 -4,-659.4 426.2333,-659.4 426.2333,4 -4,4"></polygon>
<g id="clust1" class="cluster">
<title>clusterᵥae</title>
<path fill="#dee2e6" stroke="#dee2e6" d="M216.728,-274C216.728,-274 288.728,-274 288.728,-274 294.728,-274 300.728,-280 300.728,-286 300.728,-286 300.728,-580.4 300.728,-580.4 300.728,-586.4 294.728,-592.4 288.728,-592.4 288.728,-592.4 216.728,-592.4 216.728,-592.4 210.728,-592.4 204.728,-586.4 204.728,-580.4 204.728,-580.4 204.728,-286 204.728,-286 204.728,-280 210.728,-274 216.728,-274"></path>
<text text-anchor="middle" x="252.728" y="-575.8" font-family="Times,serif" font-size="14.00" fill="#000000">VAE核心</text>
</g>
<g id="clust2" class="cluster">
<title>cluster_ganₚart</title>
<path fill="#dee2e6" stroke="#dee2e6" d="M109.728,-74.8C109.728,-74.8 169.728,-74.8 169.728,-74.8 175.728,-74.8 181.728,-80.8 181.728,-86.8 181.728,-86.8 181.728,-139.6 181.728,-139.6 181.728,-145.6 175.728,-151.6 169.728,-151.6 169.728,-151.6 109.728,-151.6 109.728,-151.6 103.728,-151.6 97.728,-145.6 97.728,-139.6 97.728,-139.6 97.728,-86.8 97.728,-86.8 97.728,-80.8 103.728,-74.8 109.728,-74.8"></path>
<text text-anchor="middle" x="139.728" y="-135" font-family="Times,serif" font-size="14.00" fill="#000000">GAN判别器</text>
</g>
<!-- Encoder -->
<g id="node1" class="node">
<title>Encoder</title>
<path fill="#a5d8ff" stroke="#000000" d="M280.836,-559.6C280.836,-559.6 226.62,-559.6 226.62,-559.6 220.62,-559.6 214.62,-553.6 214.62,-547.6 214.62,-547.6 214.62,-535.6 214.62,-535.6 214.62,-529.6 220.62,-523.6 226.62,-523.6 226.62,-523.6 280.836,-523.6 280.836,-523.6 286.836,-523.6 292.836,-529.6 292.836,-535.6 292.836,-535.6 292.836,-547.6 292.836,-547.6 292.836,-553.6 286.836,-559.6 280.836,-559.6"></path>
<text text-anchor="middle" x="253.728" y="-538.6" font-family="Helvetica,sans-Serif" font-size="10.00" fill="#000000">编码器 q(z|x)</text>
</g>
<!-- z -->
<g id="node3" class="node">
<title>z</title>
<ellipse fill="#bac8ff" stroke="#000000" cx="252.728" cy="-420.8" rx="30.1806" ry="18"></ellipse>
<text text-anchor="middle" x="252.728" y="-417.8" font-family="Helvetica,sans-Serif" font-size="10.00" fill="#000000">潜在 z</text>
</g>
<!-- Encoder&#45;&gt;z -->
<g id="edge1" class="edge">
<title>Encoder-&gt;z</title>
<path fill="none" stroke="#000000" d="M253.5783,-523.515C253.4155,-503.8553 253.1533,-472.1758 252.963,-449.1919"></path>
<polygon fill="#000000" stroke="#000000" points="256.4615,-448.9793 252.8787,-439.0086 249.4617,-449.0373 256.4615,-448.9793"></polygon>
<text text-anchor="middle" x="263.9758" y="-478.5" font-family="Helvetica,sans-Serif" font-size="9.00" fill="#000000">μ, σ</text>
</g>
<!-- lossᵥaeₑlbo -->
<g id="node8" class="node">
<title>lossᵥaeₑlbo</title>
<polygon fill="#fff3bf" stroke="#000000" points="363.0145,-36 278.4415,-36 278.4415,0 369.0145,0 369.0145,-30 363.0145,-36"></polygon>
<polyline fill="none" stroke="#000000" points="363.0145,-36 363.0145,-30 "></polyline>
<polyline fill="none" stroke="#000000" points="369.0145,-30 363.0145,-30 "></polyline>
<text text-anchor="middle" x="323.728" y="-21" font-family="Helvetica,sans-Serif" font-size="10.00" fill="#000000">VAE ELBO组件</text>
<text text-anchor="middle" x="323.728" y="-9" font-family="Helvetica,sans-Serif" font-size="10.00" fill="#000000">(重建 + KL)</text>
</g>
<!-- Encoder&#45;&gt;lossᵥaeₑlbo -->
<g id="edge7" class="edge">
<title>Encoder-&gt;lossᵥaeₑlbo</title>
<path fill="none" stroke="#000000" stroke-dasharray="1,5" d="M303.1452,-533.6174C331.9794,-525.8238 362.728,-510.6165 362.728,-481.2 362.728,-481.2 362.728,-481.2 362.728,-100.8 362.728,-76.8064 349.1593,-52.3104 338.0287,-36.2523"></path>
<polygon fill="#000000" stroke="#000000" points="301.9634,-530.3031 293.0795,-536.076 303.6244,-537.1032 301.9634,-530.3031"></polygon>
<text text-anchor="middle" x="392.4807" y="-338.7" font-family="Helvetica,sans-Serif" font-size="9.00" fill="#000000">KL(q(z|x)||p(z))</text>
</g>
<!-- Decoder -->
<g id="node2" class="node">
<title>Decoder</title>
<path fill="#74c0fc" stroke="#000000" d="M280.4545,-318C280.4545,-318 225.0015,-318 225.0015,-318 219.0015,-318 213.0015,-312 213.0015,-306 213.0015,-306 213.0015,-294 213.0015,-294 213.0015,-288 219.0015,-282 225.0015,-282 225.0015,-282 280.4545,-282 280.4545,-282 286.4545,-282 292.4545,-288 292.4545,-294 292.4545,-294 292.4545,-306 292.4545,-306 292.4545,-312 286.4545,-318 280.4545,-318"></path>
<text text-anchor="middle" x="252.728" y="-303" font-family="Helvetica,sans-Serif" font-size="10.00" fill="#000000">解码器 p(x|z)</text>
<text text-anchor="middle" x="252.728" y="-291" font-family="Helvetica,sans-Serif" font-size="10.00" fill="#000000">(生成器 G)</text>
</g>
<!-- xᵣecon -->
<g id="node4" class="node">
<title>xᵣecon</title>
<ellipse fill="#b2f2bb" stroke="#000000" cx="220.728" cy="-217.2" rx="27" ry="18"></ellipse>
<text text-anchor="middle" x="220.728" y="-214.2" font-family="Helvetica,sans-Serif" font-size="10.00" fill="#000000">生成 x'</text>
</g>
<!-- Decoder&#45;&gt;xᵣecon -->
<g id="edge3" class="edge">
<title>Decoder-&gt;xᵣecon</title>
<path fill="none" stroke="#000000" d="M245.6262,-281.624C241.3546,-270.5714 235.8425,-256.3087 231.0908,-244.0138"></path>
<polygon fill="#000000" stroke="#000000" points="234.351,-242.7403 227.4814,-234.6744 227.8217,-245.2637 234.351,-242.7403"></polygon>
<text text-anchor="middle" x="250.2974" y="-255.9" font-family="Helvetica,sans-Serif" font-size="9.00" fill="#000000">样本 x'</text>
</g>
<!-- Decoder&#45;&gt;lossᵥaeₑlbo -->
<g id="edge8" class="edge">
<title>Decoder-&gt;lossᵥaeₑlbo</title>
<path fill="none" stroke="#000000" stroke-dasharray="1,5" d="M264.0386,-272.4936C265.0228,-269.6499 265.9416,-266.783 266.728,-264 279.5532,-218.616 275.3759,-205.6134 285.7181,-159.6 295.7653,-114.8987 310.4752,-63.0537 318.3236,-36.2105"></path>
<polygon fill="#000000" stroke="#000000" points="260.7397,-271.3232 260.5376,-281.9161 267.3014,-273.7613 260.7397,-271.3232"></polygon>
<text text-anchor="middle" x="316.2329" y="-173.1" font-family="Helvetica,sans-Serif" font-size="9.00" fill="#000000">ELBO重建</text>
<text text-anchor="middle" x="316.2329" y="-162.3" font-family="Helvetica,sans-Serif" font-size="9.00" fill="#000000">(例如，元素级)</text>
</g>
<!-- loss_ganₐdv -->
<g id="node9" class="node">
<title>loss_ganₐdv</title>
<polygon fill="#fff3bf" stroke="#000000" points="69.6854,-36 -.2294,-36 -.2294,0 75.6854,0 75.6854,-30 69.6854,-36"></polygon>
<polyline fill="none" stroke="#000000" points="69.6854,-36 69.6854,-30 "></polyline>
<polyline fill="none" stroke="#000000" points="75.6854,-30 69.6854,-30 "></polyline>
<text text-anchor="middle" x="37.728" y="-15" font-family="Helvetica,sans-Serif" font-size="10.00" fill="#000000">GAN对抗损失</text>
</g>
<!-- Decoder&#45;&gt;loss_ganₐdv -->
<g id="edge10" class="edge">
<title>Decoder-&gt;loss_ganₐdv</title>
<path fill="none" stroke="#000000" stroke-dasharray="1,5" d="M202.6238,-292.0222C144.4321,-279.7146 51.4145,-249.8761 12.1931,-181.2 -14.687,-134.1334 12.0411,-67.6099 27.8728,-36.0129"></path>
<polygon fill="#000000" stroke="#000000" points="202.2154,-295.5101 212.7097,-294.0541 203.5979,-288.648 202.2154,-295.5101"></polygon>
<text text-anchor="middle" x="74.4955" y="-167.7" font-family="Helvetica,sans-Serif" font-size="9.00" fill="#000000">G（解码器）通过D的目标</text>
</g>
<!-- z&#45;&gt;Decoder -->
<g id="edge2" class="edge">
<title>z-&gt;Decoder</title>
<path fill="none" stroke="#000000" d="M252.728,-402.715C252.728,-383.0553 252.728,-351.3758 252.728,-328.3919"></path>
<polygon fill="#000000" stroke="#000000" points="256.2281,-328.2086 252.728,-318.2086 249.2281,-328.2086 256.2281,-328.2086"></polygon>
</g>
<!-- Discriminator -->
<g id="node5" class="node">
<title>Discriminator</title>
<path fill="#ffc9c9" stroke="#000000" d="M161.3451,-118.8C161.3451,-118.8 118.1109,-118.8 118.1109,-118.8 112.1109,-118.8 106.1109,-112.8 106.1109,-106.8 106.1109,-106.8 106.1109,-94.8 106.1109,-94.8 106.1109,-88.8 112.1109,-82.8 118.1109,-82.8 118.1109,-82.8 161.3451,-82.8 161.3451,-82.8 167.3451,-82.8 173.3451,-88.8 173.3451,-94.8 173.3451,-94.8 173.3451,-106.8 173.3451,-106.8 173.3451,-112.8 167.3451,-118.8 161.3451,-118.8"></path>
<text text-anchor="middle" x="139.728" y="-97.8" font-family="Helvetica,sans-Serif" font-size="10.00" fill="#000000">判别器 D(x)</text>
</g>
<!-- xᵣecon&#45;&gt;Discriminator -->
<g id="edge5" class="edge">
<title>xᵣecon-&gt;Discriminator</title>
<path fill="none" stroke="#f03e3e" stroke-dasharray="5,2" d="M209.1227,-200.5227C195.838,-181.4321 173.8986,-149.9044 158.2451,-127.4098"></path>
<polygon fill="#f03e3e" stroke="#f03e3e" points="160.9635,-125.1885 152.3787,-118.9795 155.2177,-129.1869 160.9635,-125.1885"></polygon>
<text text-anchor="middle" x="227.803" y="-167.7" font-family="Helvetica,sans-Serif" font-size="9.00" fill="#000000">生成样本 (伪造)</text>
</g>
<!-- Discriminator&#45;&gt;loss_ganₐdv -->
<g id="edge9" class="edge">
<title>Discriminator-&gt;loss_ganₐdv</title>
<path fill="none" stroke="#000000" stroke-dasharray="1,5" d="M109.3966,-76.1781C93.5635,-63.3253 74.5313,-47.8756 60.0601,-36.1284"></path>
<polygon fill="#000000" stroke="#000000" points="107.3738,-79.044 117.3437,-82.6292 111.7856,-73.6093 107.3738,-79.044"></polygon>
<text text-anchor="middle" x="111.231" y="-56.7" font-family="Helvetica,sans-Serif" font-size="9.00" fill="#000000">D的目标</text>
</g>
<!-- xᵣeal -->
<g id="node6" class="node">
<title>xᵣeal</title>
<ellipse fill="#8ce99a" stroke="#000000" cx="139.728" cy="-217.2" rx="27" ry="18"></ellipse>
<text text-anchor="middle" x="139.728" y="-214.2" font-family="Helvetica,sans-Serif" font-size="10.00" fill="#000000">真实 x</text>
</g>
<!-- xᵣeal&#45;&gt;Discriminator -->
<g id="edge4" class="edge">
<title>xᵣeal-&gt;Discriminator</title>
<path fill="none" stroke="#37b24d" d="M139.728,-199.0125C139.728,-180.3054 139.728,-150.9086 139.728,-129.1473"></path>
<polygon fill="#37b24d" stroke="#37b24d" points="143.2281,-128.8598 139.728,-118.8598 136.2281,-128.8598 143.2281,-128.8598"></polygon>
<text text-anchor="middle" x="156.3056" y="-167.7" font-family="Helvetica,sans-Serif" font-size="9.00" fill="#000000">真实样本</text>
</g>
<!-- inputₓ -->
<g id="node7" class="node">
<title>inputₓ</title>
<path fill="#ced4da" stroke="#000000" d="M211.7331,-630.1711C211.7331,-630.1711 247.2301,-621.0666 247.2301,-621.0666 250.4791,-620.2333 256.9769,-620.2333 260.2259,-621.0666 260.2259,-621.0666 295.7229,-630.1711 295.7229,-630.1711 298.9718,-631.0044 302.2132,-635.1918 302.2057,-638.5459 302.2057,-638.5459 302.1906,-645.2541 302.1906,-645.2541 302.183,-648.6082 298.8214,-651.9623 295.4673,-651.9623 295.4673,-651.9623 211.9887,-651.9623 211.9887,-651.9623 208.6346,-651.9623 205.273,-648.6082 205.2654,-645.2541 205.2654,-645.2541 205.2503,-638.5459 205.2503,-638.5459 205.2428,-635.1918 208.4842,-631.0044 211.7331,-630.1711"></path>
<text text-anchor="middle" x="253.728" y="-634.4" font-family="Helvetica,sans-Serif" font-size="10.00" fill="#000000">输入数据 x</text>
</g>
<!-- inputₓ&#45;&gt;Encoder -->
<g id="edge6" class="edge">
<title>inputₓ-&gt;Encoder</title>
<path fill="none" stroke="#000000" d="M253.728,-619.3808C253.728,-605.5527 253.728,-586.193 253.728,-570.2477"></path>
<polygon fill="#000000" stroke="#000000" points="257.2281,-569.8641 253.728,-559.8642 250.2281,-569.8642 257.2281,-569.8641"></polygon>
</g>
</g>
</svg>